<svg id="svg" version="1.1" xmlns="http://www.w3.org/2000/svg" xmlns:xlink="http://www.w3.org/1999/xlink" width="400" height="400" viewBox="0, 0, 400,400"><g id="svgg"><path id="path0" d="M177.778 101.836 C 170.794 103.650,156.660 107.303,146.852 109.829 C 142.574 110.930,136.157 112.586,132.593 113.508 C 129.028 114.430,117.218 117.471,106.348 120.264 C 95.479 123.058,86.729 125.391,86.904 125.449 C 87.079 125.507,87.165 129.472,87.095 134.259 L 86.968 142.963 88.021 142.960 C 88.600 142.959,90.076 142.653,91.301 142.280 C 96.513 140.695,107.709 138.043,108.275 138.260 C 108.844 138.478,108.889 144.353,108.889 218.847 C 108.889 263.040,108.990 299.462,109.114 299.785 C 109.501 300.795,129.489 300.657,129.811 299.642 C 129.938 299.241,129.992 266.248,129.932 226.324 C 129.859 178.658,129.947 153.611,130.188 153.375 C 130.390 153.177,135.639 151.580,141.852 149.827 C 148.065 148.073,155.565 145.949,158.519 145.106 C 161.472 144.263,164.139 143.542,164.444 143.505 C 164.750 143.467,165.250 143.336,165.556 143.214 C 166.081 143.004,169.070 142.152,179.540 139.230 L 184.079 137.963 183.984 119.290 C 183.923 107.226,183.758 100.586,183.519 100.529 C 183.315 100.481,180.731 101.069,177.778 101.836 M215.185 128.629 L 215.370 139.444 215.468 128.913 C 215.523 123.121,215.440 118.254,215.284 118.098 C 215.128 117.942,215.083 122.681,215.185 128.629 M144.240 219.630 C 144.240 226.454,144.290 229.245,144.351 225.833 C 144.412 222.421,144.412 216.838,144.351 213.426 C 144.290 210.014,144.240 212.806,144.240 219.630 " stroke="none" fill="#05a0f8" fill-rule="evenodd"></path><path id="path1" d="M104.074 139.498 C 102.343 139.984,99.593 140.698,97.963 141.084 C 92.642 142.344,88.059 143.645,87.709 143.995 C 87.501 144.203,87.375 174.360,87.389 220.780 C 87.402 262.823,87.411 297.933,87.410 298.802 L 87.407 300.382 97.685 300.284 L 107.963 300.185 107.963 219.475 C 107.963 165.966,107.838 138.740,107.593 138.689 C 107.389 138.648,105.806 139.011,104.074 139.498 M105.379 147.894 C 105.390 151.585,105.437 151.516,102.383 152.349 C 98.688 153.359,98.846 153.497,98.968 149.370 L 99.074 145.777 101.481 145.140 C 105.399 144.103,105.369 144.082,105.379 147.894 M97.037 159.796 L 97.037 163.252 94.141 164.033 C 90.054 165.136,90.328 165.347,90.450 161.204 L 90.556 157.593 93.519 156.810 C 97.219 155.833,97.037 155.679,97.037 159.796 M105.277 163.796 C 105.578 164.612,105.580 169.799,105.279 170.252 C 104.959 170.733,99.612 172.239,99.167 171.974 C 98.383 171.507,98.877 165.174,99.722 164.842 C 103.068 163.529,105.041 163.158,105.277 163.796 M97.183 175.030 C 97.500 175.858,97.452 181.951,97.124 182.453 C 96.784 182.974,93.636 183.774,91.667 183.839 L 90.185 183.889 90.080 180.110 L 89.974 176.332 91.561 175.916 C 92.434 175.687,93.898 175.274,94.815 174.998 C 96.973 174.348,96.920 174.347,97.183 175.030 M105.344 183.241 C 105.329 183.699,105.288 185.324,105.251 186.852 C 105.191 189.391,105.119 189.630,104.420 189.630 C 103.999 189.630,103.374 189.780,103.031 189.963 C 102.688 190.147,101.616 190.416,100.648 190.561 L 98.889 190.825 98.889 187.279 L 98.889 183.733 100.463 183.305 C 101.329 183.069,102.454 182.739,102.963 182.571 C 104.506 182.064,105.374 182.308,105.344 183.241 M97.037 197.604 C 97.037 200.116,96.903 201.170,96.574 201.257 C 90.102 202.973,90.304 203.058,90.448 198.671 L 90.556 195.372 92.778 194.753 C 94.000 194.412,95.458 194.120,96.019 194.104 L 97.037 194.074 97.037 197.604 M105.372 204.957 C 105.373 208.652,105.661 208.292,101.819 209.402 C 98.707 210.301,98.849 210.450,98.968 206.405 L 99.074 202.810 101.111 202.174 C 102.231 201.824,103.648 201.566,104.259 201.602 L 105.370 201.667 105.372 204.957 M96.852 216.686 L 96.852 220.163 93.812 220.961 C 92.140 221.400,90.682 221.669,90.571 221.559 C 90.261 221.248,90.334 214.446,90.648 214.435 C 90.801 214.429,92.093 214.107,93.519 213.717 C 96.959 212.779,96.852 212.683,96.852 216.686 " stroke="none" fill="#eda304" fill-rule="evenodd"></path><path id="path2" d="M80.556 127.101 C 77.500 127.921,72.917 129.120,70.370 129.766 L 65.741 130.939 65.647 215.655 L 65.554 300.370 76.295 300.370 L 87.037 300.370 87.037 212.963 C 87.037 143.270,86.943 125.561,86.574 125.582 C 86.319 125.597,83.611 126.280,80.556 127.101 M84.365 137.818 L 84.259 141.562 81.019 142.375 L 77.778 143.188 77.778 139.742 C 77.778 137.847,77.736 136.171,77.685 136.019 C 77.588 135.728,82.662 134.136,83.809 134.097 C 84.408 134.076,84.460 134.425,84.365 137.818 M75.926 149.644 L 75.926 153.319 74.907 153.544 C 74.347 153.667,73.030 154.004,71.980 154.292 C 69.092 155.083,69.221 155.242,69.339 151.048 L 69.444 147.280 72.407 146.488 C 76.134 145.491,75.926 145.304,75.926 149.644 M84.444 156.985 L 84.444 160.592 81.337 161.407 C 79.627 161.855,78.127 162.222,78.003 162.222 C 77.879 162.222,77.779 160.514,77.781 158.426 L 77.784 154.630 80.837 153.862 C 84.662 152.901,84.444 152.712,84.444 156.985 M155.185 166.647 C 149.787 168.032,142.320 169.944,138.592 170.895 C 134.864 171.847,131.406 172.781,130.907 172.970 L 130.000 173.315 130.006 186.750 C 130.012 202.133,129.649 200.594,133.704 202.409 C 135.435 203.184,138.512 204.632,140.540 205.627 L 144.228 207.435 146.466 206.841 C 147.697 206.515,151.204 205.607,154.259 204.823 C 157.315 204.040,164.481 202.198,170.185 200.730 C 175.889 199.261,185.306 196.843,191.111 195.355 C 216.378 188.882,216.591 188.818,214.505 188.401 C 213.882 188.276,202.787 182.918,189.850 176.495 C 176.913 170.071,166.154 164.815,165.942 164.815 C 165.729 164.815,165.556 164.648,165.556 164.444 C 165.556 163.954,166.299 163.796,155.185 166.647 M75.846 168.589 L 75.741 172.362 72.593 173.205 C 70.861 173.669,69.403 174.054,69.352 174.061 C 69.301 174.068,69.259 172.362,69.259 170.270 L 69.259 166.466 72.130 165.678 C 73.708 165.245,75.214 164.873,75.476 164.852 C 75.841 164.824,75.927 165.692,75.846 168.589 M84.365 175.603 L 84.259 179.354 81.019 180.192 L 77.778 181.031 77.778 177.236 L 77.778 173.442 80.648 172.688 C 82.227 172.273,83.733 171.915,83.994 171.893 C 84.360 171.861,84.446 172.724,84.365 175.603 M75.926 187.400 L 75.926 191.097 74.907 191.328 C 74.347 191.455,73.067 191.791,72.062 192.076 C 69.145 192.901,69.259 193.032,69.259 188.877 C 69.259 186.219,69.391 185.126,69.722 185.037 C 76.418 183.226,75.926 183.039,75.926 187.400 M84.444 194.744 L 84.443 198.333 81.110 199.308 C 78.934 199.944,77.769 200.137,77.753 199.863 C 77.690 198.786,77.838 192.779,77.930 192.688 C 78.213 192.405,83.927 190.851,84.167 190.992 C 84.319 191.082,84.444 192.770,84.444 194.744 M75.846 206.350 L 75.741 210.106 72.778 210.970 C 71.148 211.445,69.690 211.838,69.537 211.843 C 69.384 211.848,69.259 210.140,69.259 208.048 L 69.259 204.244 72.130 203.456 C 73.708 203.022,75.214 202.651,75.476 202.630 C 75.841 202.601,75.927 203.467,75.846 206.350 M174.727 220.383 C 172.128 220.820,169.255 221.815,167.693 222.817 C 166.934 223.305,166.132 223.704,165.911 223.704 C 163.866 223.704,157.682 232.375,156.523 236.868 C 150.439 260.453,177.528 276.894,195.063 260.259 C 211.405 244.756,197.057 216.622,174.727 220.383 M307.981 220.388 C 292.775 222.768,284.244 239.981,291.194 254.259 C 299.331 270.974,324.520 271.119,332.446 254.497 C 340.970 236.624,327.171 217.385,307.981 220.388 M211.111 243.519 L 211.111 265.926 215.370 265.926 L 219.630 265.926 219.630 257.222 L 219.630 248.519 222.019 248.519 L 224.408 248.519 228.778 257.222 L 233.148 265.926 237.852 265.926 L 242.557 265.926 242.105 264.907 C 241.563 263.685,239.937 260.525,236.156 253.346 C 232.806 246.986,232.910 247.731,235.225 246.720 C 244.323 242.748,245.346 229.107,236.964 223.545 C 233.561 221.287,232.477 221.120,221.204 221.115 L 211.111 221.111 211.111 243.519 M247.778 225.185 L 247.778 229.259 255.000 229.259 L 262.222 229.259 262.222 247.593 L 262.222 265.926 266.481 265.926 L 270.741 265.926 270.741 247.593 L 270.741 229.259 277.963 229.259 L 285.185 229.259 285.185 225.185 L 285.185 221.111 266.481 221.111 L 247.778 221.111 247.778 225.185 M183.348 229.113 C 196.242 232.942,196.289 253.384,183.414 257.814 C 172.847 261.449,163.042 252.525,164.779 240.850 C 166.165 231.533,174.262 226.415,183.348 229.113 M230.746 229.352 C 234.962 231.489,235.054 237.958,230.901 240.258 C 229.621 240.967,228.811 241.080,224.623 241.134 L 219.815 241.196 219.713 234.857 L 219.612 228.519 224.357 228.519 C 228.544 228.519,229.296 228.617,230.746 229.352 M316.472 229.085 C 323.471 231.208,327.493 239.505,325.559 247.827 C 322.364 261.568,302.840 262.274,298.494 248.806 C 294.537 236.541,304.614 225.488,316.472 229.085 M199.444 275.880 C 190.195 278.313,189.179 291.617,197.939 295.596 C 200.727 296.863,205.432 296.200,206.986 294.322 C 207.633 293.540,208.148 293.861,208.148 295.045 C 208.148 295.869,208.283 295.960,209.352 295.857 L 210.556 295.741 210.659 290.833 L 210.762 285.926 205.937 285.926 L 201.111 285.926 201.111 287.407 L 201.111 288.889 204.259 288.889 C 207.954 288.889,208.309 289.400,206.204 291.691 C 201.087 297.259,192.606 289.603,195.888 282.378 C 197.958 277.819,206.164 277.318,207.259 281.683 C 207.524 282.738,207.450 282.721,209.309 282.164 C 211.041 281.645,211.071 281.336,209.586 279.316 C 207.554 276.553,202.892 274.973,199.444 275.880 M155.556 285.926 L 155.556 295.926 161.667 295.926 L 167.778 295.926 167.778 294.444 L 167.778 292.963 163.333 292.963 L 158.889 292.963 158.889 290.185 L 158.889 287.407 162.963 287.407 L 167.037 287.407 167.037 285.926 L 167.037 284.444 162.963 284.444 L 158.889 284.444 158.889 281.667 L 158.889 278.889 163.333 278.889 L 167.778 278.889 167.778 277.407 L 167.778 275.926 161.667 275.926 L 155.556 275.926 155.556 285.926 M171.852 285.926 L 171.852 295.926 173.333 295.926 L 174.815 295.926 174.815 288.519 C 174.815 284.444,174.961 281.111,175.139 281.111 C 175.317 281.111,176.672 282.986,178.149 285.278 C 179.626 287.569,181.772 290.894,182.918 292.666 L 185.000 295.888 186.765 295.907 L 188.531 295.926 188.432 286.019 L 188.333 276.111 186.759 275.997 L 185.185 275.883 185.169 283.034 C 185.154 289.547,185.101 290.119,184.582 289.444 C 183.922 288.586,181.111 284.266,178.017 279.352 L 175.860 275.926 173.856 275.926 L 171.852 275.926 171.852 285.926 M214.815 285.917 L 214.815 295.926 220.926 295.926 L 227.037 295.926 227.037 294.444 L 227.037 292.963 222.407 292.963 L 217.778 292.963 217.778 290.185 L 217.778 287.407 221.852 287.407 L 225.926 287.407 225.926 285.926 L 225.926 284.444 221.852 284.444 L 217.778 284.444 217.778 281.667 L 217.778 278.889 222.430 278.889 L 227.082 278.889 226.967 277.500 L 226.852 276.111 220.833 276.009 L 214.815 275.908 214.815 285.917 M230.827 285.815 L 230.926 295.741 232.492 295.854 L 234.059 295.968 234.159 288.447 L 234.259 280.926 237.062 285.185 C 238.603 287.528,240.827 290.903,242.003 292.685 L 244.142 295.926 245.775 295.926 L 247.407 295.926 247.407 285.926 L 247.407 275.926 245.749 275.926 L 244.090 275.926 243.989 283.026 L 243.889 290.126 241.913 287.007 C 240.826 285.292,238.823 282.139,237.462 280.000 L 234.988 276.111 232.858 276.000 L 230.729 275.889 230.827 285.815 M252.222 285.926 L 252.222 295.926 253.704 295.926 L 255.185 295.926 255.185 291.667 L 255.185 287.407 260.000 287.407 L 264.815 287.407 264.815 291.688 L 264.815 295.969 266.389 295.855 L 267.963 295.741 268.062 285.812 L 268.160 275.883 266.580 275.997 L 265.000 276.111 264.895 280.289 L 264.790 284.466 260.080 284.363 L 255.370 284.259 255.266 280.093 L 255.161 275.926 253.692 275.926 L 252.222 275.926 252.222 285.926 M278.113 276.925 C 277.704 277.983,276.939 280.001,274.868 285.485 C 274.229 287.178,273.530 288.892,273.315 289.293 C 273.100 289.695,272.447 291.360,271.863 292.994 L 270.801 295.964 272.483 295.852 L 274.166 295.741 275.088 293.241 L 276.010 290.741 280.320 290.744 L 284.630 290.747 285.557 293.244 L 286.483 295.741 288.222 295.853 L 289.960 295.965 289.033 293.631 C 288.523 292.347,287.886 290.713,287.617 290.000 C 287.348 289.287,286.416 286.870,285.545 284.630 C 284.674 282.389,283.589 279.556,283.134 278.333 L 282.308 276.111 280.412 275.999 C 278.633 275.894,278.490 275.951,278.113 276.925 M292.593 285.926 L 292.593 295.926 294.259 295.926 L 295.926 295.926 295.926 291.935 L 295.926 287.943 297.315 288.086 C 298.667 288.225,298.754 288.328,300.615 291.985 L 302.527 295.741 304.435 295.853 L 306.343 295.966 305.342 294.187 C 304.792 293.208,303.767 291.367,303.065 290.096 L 301.787 287.784 302.653 287.449 C 305.731 286.259,307.110 282.778,305.771 279.575 C 304.608 276.791,302.559 275.965,296.759 275.942 L 292.593 275.926 292.593 285.926 M310.000 285.926 L 310.000 295.926 311.481 295.926 L 312.963 295.926 312.963 285.926 L 312.963 275.926 311.481 275.926 L 310.000 275.926 310.000 285.926 M323.445 276.389 C 323.253 276.644,322.210 279.185,321.127 282.037 C 320.043 284.889,318.430 289.033,317.541 291.247 C 315.571 296.156,315.573 295.994,317.498 295.855 C 319.060 295.741,319.076 295.726,320.029 293.333 L 320.988 290.926 325.262 290.822 L 329.537 290.718 330.463 293.229 L 331.390 295.741 333.150 295.856 C 334.486 295.943,334.864 295.853,334.717 295.485 C 334.610 295.218,333.109 291.333,331.381 286.852 C 326.715 274.749,327.356 275.926,325.435 275.926 C 324.533 275.926,323.637 276.134,323.445 276.389 M301.987 279.657 C 304.677 281.772,302.831 284.911,298.738 285.183 L 295.926 285.370 295.926 282.130 L 295.926 278.889 298.469 278.889 C 300.480 278.889,301.215 279.049,301.987 279.657 M327.566 285.463 L 328.427 287.778 325.281 287.778 C 322.456 287.778,322.156 287.712,322.336 287.130 C 322.753 285.778,324.814 280.302,325.047 279.924 C 325.283 279.542,325.736 280.537,327.566 285.463 M280.933 280.833 C 281.066 281.292,281.670 282.977,282.275 284.578 C 283.590 288.060,283.747 287.835,280.097 287.701 L 277.139 287.593 278.360 284.444 C 279.031 282.713,279.659 281.005,279.756 280.648 C 280.001 279.740,280.645 279.841,280.933 280.833 M133.426 300.276 C 135.208 300.344,138.125 300.344,139.907 300.276 C 141.690 300.208,140.231 300.152,136.667 300.152 C 133.102 300.152,131.644 300.208,133.426 300.276 " stroke="none" fill="#0a2360" fill-rule="evenodd"></path><path id="path3" d="M184.074 119.352 L 184.073 137.963 179.537 139.232 C 177.041 139.930,172.833 141.113,170.185 141.861 L 165.370 143.222 165.266 153.185 C 165.162 163.223,165.255 164.815,165.949 164.815 C 166.158 164.815,176.929 170.078,189.884 176.512 C 202.840 182.945,213.847 188.237,214.344 188.271 L 215.248 188.333 215.198 153.592 C 215.149 119.683,215.130 118.834,214.426 118.129 C 214.029 117.732,213.704 117.503,213.704 117.619 C 213.704 117.735,213.440 117.567,213.118 117.245 C 212.796 116.923,212.380 116.755,212.192 116.870 C 212.005 116.986,211.852 116.894,211.852 116.667 C 211.852 116.439,211.685 116.356,211.481 116.481 C 211.278 116.607,211.111 116.546,211.111 116.345 C 211.111 115.923,207.151 113.580,206.437 113.580 C 206.173 113.580,205.873 113.358,205.768 113.086 C 205.664 112.815,205.414 112.593,205.213 112.593 C 205.012 112.593,204.237 112.178,203.491 111.672 C 202.745 111.166,202.002 110.833,201.840 110.934 C 201.677 111.034,201.489 110.984,201.421 110.822 C 201.184 110.264,198.893 108.843,198.560 109.049 C 198.376 109.162,198.121 108.982,197.993 108.649 C 197.865 108.315,197.661 108.141,197.540 108.263 C 197.418 108.384,197.076 108.240,196.778 107.942 C 196.480 107.644,196.083 107.495,195.896 107.611 C 195.709 107.727,195.556 107.562,195.556 107.244 C 195.556 106.921,195.241 106.667,194.841 106.667 C 194.448 106.667,193.865 106.405,193.545 106.085 C 193.225 105.765,192.960 105.640,192.957 105.807 C 192.954 105.974,192.829 105.936,192.680 105.722 C 192.402 105.326,184.678 100.741,184.288 100.741 C 184.170 100.741,184.074 109.116,184.074 119.352 M129.954 237.703 L 130.092 300.035 136.665 300.110 C 141.421 300.164,143.354 300.061,143.658 299.736 C 143.966 299.406,144.052 287.128,143.983 253.260 L 143.889 207.232 142.222 206.421 C 141.306 205.974,138.306 204.570,135.556 203.301 C 132.806 202.031,130.472 200.922,130.370 200.836 C 130.269 200.750,130.102 194.985,130.000 188.025 C 129.898 181.065,129.877 203.420,129.954 237.703 " stroke="none" fill="#1533ab" fill-rule="evenodd"></path><path id="path4" d="M99.815 139.978 C 96.148 140.941,92.206 142.007,91.054 142.346 C 89.902 142.685,88.527 142.963,87.999 142.963 C 87.202 142.963,87.037 143.134,87.037 143.960 C 87.037 144.856,87.085 144.891,87.507 144.314 C 87.958 143.696,91.392 142.636,97.963 141.087 C 99.593 140.702,102.426 139.980,104.259 139.481 C 106.093 138.983,107.718 138.696,107.872 138.845 C 108.026 138.993,108.109 175.397,108.057 219.742 C 107.974 291.207,108.026 300.370,108.519 300.370 C 109.056 300.370,109.252 140.036,108.716 138.611 C 108.440 137.877,106.928 138.109,99.815 139.978 M215.359 161.852 C 215.359 174.380,215.406 179.505,215.463 173.241 C 215.520 166.977,215.520 156.727,215.463 150.463 C 215.406 144.199,215.359 149.324,215.359 161.852 M87.190 155.370 C 87.190 159.037,87.246 160.487,87.313 158.592 C 87.381 156.698,87.380 153.698,87.313 151.926 C 87.245 150.154,87.190 151.704,87.190 155.370 M87.218 230.185 C 87.218 266.852,87.262 281.907,87.315 263.640 C 87.368 245.374,87.368 215.374,87.315 196.974 C 87.262 178.573,87.218 193.519,87.218 230.185 M210.911 221.204 C 210.813 221.458,210.777 231.667,210.830 243.889 L 210.926 266.111 215.278 266.130 L 219.631 266.148 215.371 266.025 L 211.111 265.902 211.111 243.513 L 211.111 221.123 221.019 221.018 L 230.926 220.913 221.007 220.827 C 213.348 220.760,211.048 220.846,210.911 221.204 M257.156 221.018 C 262.415 221.076,270.915 221.076,276.044 221.018 C 281.174 220.960,276.870 220.913,266.481 220.913 C 256.093 220.913,251.896 220.960,257.156 221.018 M166.852 222.963 C 166.241 223.368,165.907 223.696,166.111 223.693 C 166.482 223.687,168.496 222.244,168.148 222.233 C 168.046 222.230,167.463 222.558,166.852 222.963 M236.658 223.225 C 237.162 223.590,238.162 224.381,238.880 224.983 L 240.185 226.078 239.183 224.980 C 238.632 224.377,237.632 223.585,236.961 223.222 C 235.786 222.585,235.775 222.585,236.658 223.225 M323.704 223.078 C 323.704 223.164,324.412 223.702,325.278 224.273 C 326.144 224.844,326.656 225.074,326.417 224.785 C 325.958 224.229,323.704 222.811,323.704 223.078 M297.764 224.471 L 296.481 225.609 297.870 224.612 C 299.098 223.732,299.497 223.333,299.153 223.333 C 299.094 223.333,298.469 223.845,297.764 224.471 M194.074 225.741 C 194.765 226.454,195.414 227.037,195.516 227.037 C 195.618 227.037,195.135 226.454,194.444 225.741 C 193.753 225.028,193.105 224.444,193.003 224.444 C 192.901 224.444,193.383 225.028,194.074 225.741 M161.512 227.260 C 160.469 228.401,159.443 229.693,159.232 230.130 C 159.018 230.574,159.223 230.435,159.696 229.815 C 160.162 229.204,161.277 227.912,162.174 226.944 C 163.071 225.977,163.716 225.185,163.606 225.185 C 163.497 225.185,162.554 226.119,161.512 227.260 M328.333 226.667 C 329.129 227.481,329.863 228.148,329.965 228.148 C 330.067 228.148,329.499 227.481,328.704 226.667 C 327.908 225.852,327.174 225.185,327.072 225.185 C 326.970 225.185,327.538 225.852,328.333 226.667 M330.741 229.630 C 331.176 230.241,331.615 230.741,331.717 230.741 C 331.819 230.741,331.546 230.241,331.111 229.630 C 330.676 229.019,330.237 228.519,330.135 228.519 C 330.033 228.519,330.306 229.019,330.741 229.630 M262.032 247.685 L 262.037 266.111 266.481 266.111 L 270.926 266.111 270.931 247.685 L 270.936 229.259 270.835 247.593 L 270.734 265.926 266.481 265.926 L 262.229 265.926 262.128 247.593 L 262.027 229.259 262.032 247.685 M292.312 230.093 C 291.762 230.779,290.299 233.756,290.442 233.899 C 290.510 233.967,291.083 233.034,291.717 231.826 C 292.869 229.629,293.008 229.224,292.312 230.093 M168.310 232.685 L 167.222 233.889 168.426 232.801 C 169.548 231.787,169.800 231.481,169.514 231.481 C 169.450 231.481,168.908 232.023,168.310 232.685 M333.378 234.444 C 333.372 234.750,333.596 235.500,333.876 236.111 C 334.530 237.542,334.540 236.876,333.889 235.185 C 333.614 234.472,333.385 234.139,333.378 234.444 M241.544 240.351 C 241.327 240.973,241.228 241.481,241.325 241.481 C 241.575 241.481,242.274 239.558,242.090 239.374 C 242.006 239.290,241.760 239.730,241.544 240.351 M334.908 241.667 C 334.912 242.481,334.988 242.771,335.077 242.310 C 335.165 241.850,335.162 241.183,335.069 240.829 C 334.977 240.475,334.904 240.852,334.908 241.667 M288.640 243.519 C 288.642 244.944,288.709 245.482,288.789 244.714 C 288.869 243.946,288.868 242.779,288.786 242.121 C 288.704 241.464,288.638 242.093,288.640 243.519 M164.550 243.519 C 164.553 244.537,164.625 244.910,164.710 244.347 C 164.795 243.784,164.793 242.950,164.705 242.495 C 164.617 242.039,164.548 242.500,164.550 243.519 M238.712 244.213 C 236.529 246.449,236.789 246.484,239.197 244.279 C 240.193 243.366,241.472 241.706,241.032 241.898 C 240.973 241.923,239.930 242.965,238.712 244.213 M201.945 243.519 C 201.949 244.333,202.025 244.623,202.114 244.162 C 202.202 243.702,202.199 243.035,202.106 242.681 C 202.014 242.327,201.941 242.704,201.945 243.519 M334.901 245.556 C 334.901 246.269,334.977 246.560,335.070 246.204 C 335.163 245.847,335.163 245.264,335.070 244.907 C 334.977 244.551,334.901 244.843,334.901 245.556 M221.842 248.785 C 223.161 248.864,224.382 249.128,224.556 249.372 C 224.777 249.683,224.827 249.650,224.721 249.259 C 224.607 248.837,223.954 248.696,222.008 248.673 L 219.444 248.642 221.842 248.785 M333.915 250.582 C 333.779 251.125,333.739 251.640,333.826 251.728 C 333.914 251.815,334.097 251.442,334.233 250.899 C 334.369 250.357,334.409 249.841,334.322 249.754 C 334.234 249.667,334.052 250.039,333.915 250.582 M225.556 251.481 C 225.971 252.296,226.395 252.963,226.497 252.963 C 226.598 252.963,226.342 252.296,225.926 251.481 C 225.510 250.667,225.087 250.000,224.985 250.000 C 224.883 250.000,225.140 250.667,225.556 251.481 M333.023 253.164 C 332.403 254.526,332.521 254.817,333.192 253.578 C 333.505 253.000,333.692 252.458,333.608 252.373 C 333.523 252.288,333.260 252.644,333.023 253.164 M157.407 253.475 C 157.407 253.873,158.509 255.926,158.723 255.926 C 158.825 255.926,158.632 255.384,158.296 254.722 C 157.608 253.370,157.407 253.088,157.407 253.475 M301.852 254.630 C 302.543 255.343,303.192 255.926,303.293 255.926 C 303.395 255.926,302.913 255.343,302.222 254.630 C 301.531 253.917,300.882 253.333,300.781 253.333 C 300.679 253.333,301.161 253.917,301.852 254.630 M237.037 255.185 C 237.453 256.000,237.876 256.667,237.978 256.667 C 238.080 256.667,237.823 256.000,237.407 255.185 C 236.992 254.370,236.568 253.704,236.466 253.704 C 236.365 253.704,236.621 254.370,237.037 255.185 M330.369 257.870 C 329.824 258.615,329.735 258.874,330.135 258.549 C 330.742 258.056,331.660 256.667,331.379 256.667 C 331.308 256.667,330.854 257.208,330.369 257.870 M160.291 258.394 C 161.268 259.782,164.617 262.853,165.711 263.365 C 166.135 263.563,165.981 263.349,165.370 262.889 C 164.759 262.430,163.181 260.967,161.863 259.638 C 160.544 258.309,159.837 257.749,160.291 258.394 M293.736 258.747 C 294.227 259.383,294.704 259.836,294.795 259.755 C 294.886 259.674,294.484 259.154,293.901 258.600 L 292.841 257.593 293.736 258.747 M195.000 260.293 C 193.778 261.465,192.361 262.719,191.852 263.080 C 190.962 263.710,190.973 263.710,192.125 263.087 C 193.172 262.521,197.857 258.137,197.396 258.155 C 197.300 258.159,196.222 259.121,195.000 260.293 M328.128 260.648 L 326.852 262.037 328.241 260.761 C 329.533 259.573,329.800 259.259,329.517 259.259 C 329.455 259.259,328.830 259.884,328.128 260.648 M325.370 262.810 L 324.259 263.765 325.463 262.968 C 326.125 262.530,326.667 262.100,326.667 262.012 C 326.667 261.735,326.510 261.831,325.370 262.810 M189.259 264.444 C 188.546 264.835,188.096 265.161,188.259 265.170 C 188.652 265.190,190.741 264.104,190.741 263.879 C 190.741 263.637,190.719 263.645,189.259 264.444 M241.871 264.259 C 241.867 264.463,242.022 264.880,242.216 265.185 C 242.520 265.665,241.925 265.768,237.858 265.943 L 233.148 266.145 238.056 266.221 C 240.755 266.262,242.957 266.171,242.950 266.019 C 242.928 265.566,241.879 263.855,241.871 264.259 M167.837 277.303 L 167.778 278.866 163.241 278.983 L 158.704 279.099 163.252 279.179 C 168.261 279.267,168.325 279.238,168.048 276.980 C 167.910 275.854,167.891 275.884,167.837 277.303 M205.216 276.064 C 205.597 276.405,207.778 277.407,207.778 277.241 C 207.778 277.028,205.725 275.926,205.327 275.926 C 205.181 275.926,205.131 275.988,205.216 276.064 M214.607 285.926 C 214.607 291.528,214.658 293.819,214.721 291.019 C 214.784 288.218,214.784 283.634,214.721 280.833 C 214.658 278.032,214.607 280.324,214.607 285.926 M247.570 285.926 C 247.570 291.528,247.621 293.819,247.684 291.019 C 247.747 288.218,247.747 283.634,247.684 280.833 C 247.621 278.032,247.570 280.324,247.570 285.926 M252.014 285.926 C 252.014 291.528,252.066 293.819,252.129 291.019 C 252.192 288.218,252.192 283.634,252.129 280.833 C 252.066 278.032,252.014 280.324,252.014 285.926 M255.352 280.185 L 255.370 284.259 260.000 284.276 L 264.630 284.292 260.105 284.172 L 255.580 284.052 255.457 280.082 L 255.334 276.111 255.352 280.185 M292.385 285.926 C 292.385 291.528,292.436 293.819,292.499 291.019 C 292.562 288.218,292.562 283.634,292.499 280.833 C 292.436 278.032,292.385 280.324,292.385 285.926 M309.792 285.926 C 309.792 291.528,309.844 293.819,309.907 291.019 C 309.969 288.218,309.969 283.634,309.907 280.833 C 309.844 278.032,309.792 280.324,309.792 285.926 M313.125 285.926 C 313.125 291.528,313.177 293.819,313.240 291.019 C 313.303 288.218,313.303 283.634,313.240 280.833 C 313.177 278.032,313.125 280.324,313.125 285.926 M171.643 285.926 C 171.643 291.324,171.695 293.532,171.758 290.833 C 171.822 288.134,171.822 283.718,171.758 281.019 C 171.695 278.319,171.643 280.528,171.643 285.926 M283.175 278.519 C 283.311 279.028,283.577 279.694,283.766 280.000 C 284.005 280.386,284.034 280.273,283.862 279.630 C 283.726 279.120,283.460 278.454,283.271 278.148 C 283.032 277.762,283.003 277.875,283.175 278.519 M201.204 278.774 C 201.560 278.867,202.144 278.867,202.500 278.774 C 202.856 278.681,202.565 278.604,201.852 278.604 C 201.139 278.604,200.847 278.681,201.204 278.774 M178.101 279.444 C 178.301 279.852,178.736 280.519,179.067 280.926 L 179.670 281.667 179.307 280.926 C 179.107 280.519,178.672 279.852,178.340 279.444 L 177.737 278.704 178.101 279.444 M217.851 281.759 L 217.925 284.630 218.053 281.956 L 218.180 279.282 222.701 279.165 L 227.222 279.049 222.500 278.969 L 217.778 278.889 217.851 281.759 M237.859 280.746 C 238.324 281.563,239.082 282.688,239.545 283.246 C 240.008 283.803,239.697 283.134,238.855 281.759 C 237.197 279.051,236.485 278.327,237.859 280.746 M174.899 288.611 L 174.983 296.111 175.092 288.779 C 175.171 283.435,175.315 281.518,175.621 281.707 C 175.878 281.866,175.938 281.801,175.776 281.539 C 174.990 280.267,174.821 281.634,174.899 288.611 M176.249 282.778 C 176.449 283.185,176.884 283.852,177.216 284.259 L 177.819 285.000 177.455 284.259 C 177.255 283.852,176.820 283.185,176.488 282.778 L 175.885 282.037 176.249 282.778 M181.675 285.024 C 182.020 285.649,182.631 286.566,183.033 287.062 L 183.765 287.963 183.139 286.827 C 182.795 286.203,182.184 285.286,181.781 284.790 L 181.049 283.889 181.675 285.024 M225.985 285.820 L 225.926 287.381 222.130 287.502 L 218.333 287.622 222.141 287.700 C 226.340 287.786,226.469 287.716,226.196 285.498 C 226.058 284.371,226.039 284.401,225.985 285.820 M285.768 285.185 C 285.904 285.694,286.170 286.361,286.359 286.667 C 286.597 287.053,286.626 286.940,286.454 286.296 C 286.318 285.787,286.052 285.120,285.863 284.815 C 285.625 284.429,285.596 284.542,285.768 285.185 M200.842 287.407 C 200.842 288.324,200.914 288.699,201.002 288.241 C 201.090 287.782,201.090 287.032,201.002 286.574 C 200.914 286.116,200.842 286.491,200.842 287.407 M318.560 287.819 C 318.331 288.473,318.210 289.074,318.289 289.153 C 318.368 289.232,318.620 288.762,318.848 288.107 C 319.076 287.452,319.198 286.852,319.119 286.773 C 319.039 286.694,318.788 287.164,318.560 287.819 M161.389 287.680 C 162.458 287.755,164.208 287.755,165.278 287.680 C 166.347 287.606,165.472 287.544,163.333 287.544 C 161.194 287.544,160.319 287.606,161.389 287.680 M217.905 290.185 C 217.906 291.815,217.971 292.435,218.049 291.564 C 218.128 290.693,218.127 289.360,218.047 288.601 C 217.967 287.843,217.903 288.556,217.905 290.185 M255.327 291.667 C 255.327 294.111,255.387 295.063,255.460 293.782 C 255.532 292.501,255.532 290.501,255.458 289.337 C 255.385 288.174,255.326 289.222,255.327 291.667 M302.963 290.000 C 303.379 290.815,303.802 291.481,303.904 291.481 C 304.006 291.481,303.749 290.815,303.333 290.000 C 302.918 289.185,302.494 288.519,302.392 288.519 C 302.291 288.519,302.547 289.185,302.963 290.000 M195.926 289.799 C 195.926 289.947,196.259 290.492,196.667 291.010 C 197.074 291.528,197.407 291.831,197.407 291.682 C 197.407 291.534,197.074 290.989,196.667 290.471 C 196.259 289.953,195.926 289.651,195.926 289.799 M240.564 290.950 C 240.909 291.575,241.520 292.492,241.922 292.987 L 242.654 293.889 242.028 292.753 C 241.684 292.129,241.073 291.212,240.670 290.716 L 239.938 289.815 240.564 290.950 M181.804 291.296 C 182.004 291.704,182.439 292.370,182.771 292.778 L 183.374 293.519 183.011 292.778 C 182.811 292.370,182.375 291.704,182.044 291.296 L 181.441 290.556 181.804 291.296 M205.642 291.863 C 204.977 292.468,204.571 292.963,204.740 292.963 C 204.908 292.963,205.526 292.463,206.111 291.852 C 207.472 290.431,207.210 290.437,205.642 291.863 M277.222 290.983 C 280.777 291.255,284.816 291.274,284.816 291.019 C 284.815 290.866,282.773 290.770,280.278 290.805 C 277.782 290.841,276.407 290.921,277.222 290.983 M320.982 291.019 C 320.887 291.171,322.169 291.251,323.830 291.197 C 329.275 291.017,329.890 290.871,325.485 290.805 C 323.103 290.770,321.077 290.866,320.982 291.019 M333.201 291.480 C 333.333 291.988,333.750 293.072,334.129 293.887 C 334.507 294.703,334.708 294.954,334.576 294.446 C 334.445 293.938,334.027 292.854,333.649 292.039 C 333.271 291.223,333.070 290.972,333.201 291.480 M163.312 292.864 L 167.736 292.985 167.886 294.458 L 168.036 295.931 167.999 294.355 L 167.963 292.778 163.425 292.760 L 158.888 292.742 163.312 292.864 M194.446 293.460 C 194.954 294.039,195.704 294.684,196.111 294.894 C 196.891 295.296,196.868 295.272,194.816 293.516 L 193.521 292.407 194.446 293.460 M220.663 292.867 C 221.944 292.940,223.944 292.939,225.107 292.866 C 226.270 292.793,225.222 292.733,222.778 292.734 C 220.333 292.735,219.382 292.795,220.663 292.867 M206.825 294.528 L 206.111 295.370 206.944 294.665 L 207.778 293.959 207.828 295.035 C 207.872 295.973,207.900 295.999,208.045 295.235 C 208.293 293.924,207.652 293.552,206.825 294.528 M87.138 298.889 C 87.138 299.806,87.210 300.181,87.298 299.722 C 87.387 299.264,87.387 298.514,87.298 298.056 C 87.210 297.597,87.138 297.972,87.138 298.889 " stroke="none" fill="#526187" fill-rule="evenodd"></path></g></svg>